<svg width="69" height="309" viewBox="0 0 69 309" fill="none" xmlns="http://www.w3.org/2000/svg">
    <rect x="2" y="306.472" width="304.483" height="61.7669" rx="6"
        transform="rotate(-89.5099 2 306.472)" fill="#BDE3FF" stroke="black" stroke-opacity="0.2"
        stroke-width="4" stroke-miterlimit="0" />
    <path
        d="M42.9488 195.74L42.9005 201.39L25.4466 201.241L25.4965 195.411C25.5111 193.701 25.8731 192.236 26.5824 191.014C27.2861 189.793 28.2912 188.861 29.5979 188.219C30.8989 187.571 32.4557 187.255 34.2681 187.27C36.0862 187.286 37.6458 187.632 38.9469 188.307C40.2481 188.978 41.2455 189.941 41.9394 191.197C42.6275 192.453 42.964 193.967 42.9488 195.74ZM40.622 198.737L40.6465 195.865C40.6579 194.535 40.4174 193.428 39.9249 192.543C39.4268 191.658 38.7023 190.993 37.7516 190.547C36.7951 190.102 35.6266 189.873 34.246 189.861C32.8767 189.849 31.7129 190.058 30.7547 190.487C29.7965 190.911 29.0666 191.55 28.5649 192.403C28.0633 193.257 27.807 194.32 27.7961 195.593L27.7702 198.627L40.622 198.737ZM35.294 181.924L43.0664 181.991L43.0446 184.539L29.9542 184.427L29.9751 181.981L32.1057 181.999L32.1071 181.837C31.4165 181.53 30.8638 181.054 30.4488 180.408C30.0339 179.757 29.8307 178.94 29.8391 177.957C29.8467 177.065 30.0409 176.285 30.4216 175.618C30.7967 174.951 31.3522 174.436 32.0883 174.073C32.8244 173.71 33.7322 173.533 34.8117 173.542L43.1381 173.613L43.1163 176.161L35.0967 176.093C34.1479 176.085 33.4043 176.325 32.866 176.815C32.322 177.305 32.0464 177.981 32.039 178.845C32.0339 179.436 32.1573 179.963 32.409 180.425C32.6608 180.882 33.0327 181.246 33.5247 181.517C34.0111 181.783 34.6008 181.918 35.294 181.924ZM43.4874 166.653C43.4803 167.482 43.3205 168.231 43.008 168.899C42.6897 169.566 42.2335 170.094 41.6393 170.481C41.0451 170.862 40.319 171.049 39.4611 171.042C38.7225 171.035 38.1158 170.888 37.6409 170.6C37.1661 170.312 36.7916 169.925 36.5173 169.44C36.243 168.954 36.0374 168.413 35.9005 167.815C35.7636 167.217 35.6608 166.608 35.5922 165.988C35.508 165.204 35.4396 164.567 35.387 164.078C35.3287 163.588 35.2323 163.232 35.0978 163.01C34.9634 162.787 34.7427 162.674 34.4359 162.672L34.3763 162.671C33.632 162.665 33.0535 162.87 32.6408 163.287C32.2282 163.698 32.0184 164.316 32.0113 165.14C32.004 165.998 32.1885 166.675 32.565 167.173C32.9358 167.665 33.3505 168.006 33.8091 168.198L33.2432 170.588C32.4502 170.297 31.8117 169.877 31.3277 169.327C30.8382 168.772 30.4856 168.135 30.2702 167.417C30.049 166.7 29.9418 165.946 29.9486 165.156C29.9531 164.633 30.0203 164.08 30.1503 163.496C30.2747 162.906 30.501 162.357 30.8292 161.848C31.1575 161.334 31.6241 160.915 32.2292 160.59C32.8286 160.266 33.6055 160.108 34.5601 160.116L43.2529 160.19L43.2316 162.679L41.4419 162.663L41.441 162.766C41.7692 162.933 42.0909 163.183 42.4063 163.515C42.7216 163.848 42.9822 164.273 43.188 164.792C43.3938 165.311 43.4936 165.931 43.4874 166.653ZM41.4468 166.081C41.4528 165.377 41.3188 164.773 41.0446 164.271C40.7706 163.763 40.4102 163.376 39.9636 163.111C39.5114 162.84 39.0267 162.702 38.5097 162.698L36.8223 162.684C36.9124 162.775 36.9961 162.952 37.0734 163.214C37.1451 163.47 37.2079 163.764 37.2619 164.094C37.3102 164.424 37.3558 164.745 37.3986 165.058C37.4357 165.371 37.4675 165.632 37.4941 165.843C37.5524 166.338 37.6536 166.79 37.7979 167.201C37.9421 167.605 38.1524 167.931 38.4287 168.178C38.6994 168.419 39.062 168.541 39.5165 168.545C40.1472 168.55 40.6265 168.321 40.9543 167.858C41.2764 167.395 41.4406 166.803 41.4468 166.081ZM43.2797 157.06L30.1893 156.948L30.2111 154.4L43.3015 154.512L43.2797 157.06ZM33.5179 141.454L33.9073 143.767C33.611 143.861 33.3284 144.012 33.0596 144.22C32.7908 144.422 32.5697 144.699 32.3962 145.049C32.2228 145.4 32.1338 145.84 32.1293 146.368C32.1231 147.09 32.2799 147.693 32.5996 148.179C32.9136 148.665 33.3235 148.91 33.8291 148.914C34.2666 148.918 34.6203 148.759 34.8901 148.437C35.1599 148.116 35.3831 147.595 35.5597 146.875L36.0547 144.799C36.3435 143.597 36.7801 142.703 37.3647 142.117C37.9492 141.531 38.7046 141.242 39.6307 141.25C40.4148 141.257 41.1116 141.49 41.7214 141.95C42.3255 142.404 42.7974 143.036 43.137 143.846C43.4768 144.65 43.6421 145.58 43.6331 146.637C43.6205 148.103 43.2978 149.296 42.6649 150.217C42.0263 151.138 41.1266 151.698 39.9658 151.899L39.6118 149.432C40.2552 149.284 40.7437 148.973 41.0773 148.499C41.4052 148.024 41.5725 147.404 41.579 146.637C41.5862 145.801 41.4186 145.132 41.0763 144.629C40.7283 144.126 40.3015 143.873 39.7958 143.868C39.3867 143.865 39.0417 144.015 38.7607 144.32C38.4797 144.618 38.2655 145.08 38.1181 145.704L37.6134 147.915C37.3245 149.134 36.8736 150.034 36.2607 150.614C35.6478 151.188 34.8755 151.471 33.9437 151.463C33.171 151.457 32.4967 151.235 31.9209 150.798C31.3451 150.362 30.8985 149.761 30.5811 148.997C30.2581 148.233 30.1008 147.359 30.1092 146.377C30.1213 144.962 30.4377 143.851 31.0582 143.044C31.6731 142.236 32.493 141.706 33.5179 141.454ZM43.2941 147.401L43.3084 145.731L44.0061 145.873C44.0899 145.38 44.2924 144.949 44.6137 144.583C44.9351 144.216 45.4167 144.036 46.0588 144.041C46.8258 144.042 47.4451 144.38 47.9166 145.054C48.3882 145.723 48.6186 146.688 48.6078 147.95L47.1841 147.989C47.1892 147.398 47.108 146.92 46.9407 146.555C46.7734 146.184 46.4995 145.994 46.1188 145.985C45.7382 145.976 45.47 146.116 45.3141 146.404C45.1583 146.687 45.0464 147.141 44.9786 147.765L43.2941 147.401ZM43.4364 138.745L30.3459 138.633L30.3668 136.187L32.4974 136.205L32.4988 136.043C31.7796 135.764 31.2209 135.314 30.8228 134.691C30.4191 134.068 30.2209 133.325 30.2283 132.461C30.2357 131.586 30.4465 130.855 30.8607 130.268C31.2749 129.675 31.8411 129.239 32.5594 128.961L32.5606 128.825C31.8644 128.506 31.3119 128.005 30.9029 127.319C30.4883 126.634 30.2851 125.82 30.2931 124.876C30.3033 123.689 30.6837 122.723 31.4344 121.98C32.1852 121.231 33.3105 120.862 34.8105 120.875L43.5886 120.95L43.5668 123.498L35.0273 123.425C34.141 123.418 33.4969 123.654 33.095 124.133C32.6932 124.613 32.4894 125.188 32.4837 125.858C32.4766 126.688 32.7267 127.335 33.2341 127.799C33.7359 128.264 34.3844 128.5 35.1799 128.506L43.5233 128.578L43.5016 131.117L34.8002 131.043C34.09 131.037 33.5171 131.254 33.0815 131.693C32.6459 132.133 32.4251 132.707 32.419 133.418C32.4149 133.901 32.5389 134.348 32.7911 134.759C33.0376 135.164 33.3842 135.494 33.831 135.748C34.2777 135.996 34.7965 136.123 35.3874 136.128L43.4581 136.197L43.4364 138.745ZM43.9379 113.992C43.9308 114.821 43.771 115.57 43.4584 116.238C43.1402 116.906 42.684 117.433 42.0897 117.82C41.4955 118.201 40.7695 118.388 39.9115 118.381C39.1729 118.374 38.5662 118.227 38.0914 117.939C37.6166 117.651 37.242 117.264 36.9677 116.779C36.6935 116.294 36.4879 115.752 36.3509 115.154C36.214 114.556 36.1113 113.948 36.0427 113.328C35.9585 112.543 35.8901 111.906 35.8374 111.417C35.7791 110.928 35.6827 110.572 35.5483 110.349C35.4138 110.126 35.1932 110.013 34.8864 110.011L34.8267 110.01C34.0824 110.004 33.5039 110.209 33.0913 110.626C32.6786 111.037 32.4688 111.655 32.4618 112.479C32.4544 113.337 32.639 114.014 33.0154 114.512C33.3862 115.004 33.8009 115.345 34.2595 115.537L33.6936 117.927C32.9006 117.636 32.2621 117.216 31.7782 116.666C31.2886 116.111 30.9361 115.474 30.7206 114.757C30.4995 114.039 30.3923 113.285 30.399 112.495C30.4035 111.973 30.4707 111.419 30.6007 110.835C30.7251 110.245 30.9514 109.696 31.2796 109.187C31.6079 108.673 32.0746 108.254 32.6796 107.929C33.279 107.605 34.056 107.447 35.0105 107.455L43.7034 107.529L43.6821 110.018L41.8924 110.003L41.8915 110.105C42.2196 110.272 42.5414 110.522 42.8567 110.855C43.1721 111.187 43.4326 111.612 43.6384 112.131C43.8442 112.65 43.944 113.27 43.9379 113.992ZM41.8972 113.42C41.9033 112.716 41.7692 112.112 41.4951 111.61C41.221 111.102 40.8607 110.715 40.4141 110.45C39.9618 110.179 39.4772 110.042 38.9601 110.037L37.2727 110.023C37.3628 110.114 37.4466 110.291 37.5239 110.553C37.5955 110.81 37.6584 111.103 37.7124 111.433C37.7607 111.763 37.8062 112.084 37.849 112.397C37.8861 112.71 37.918 112.972 37.9446 113.182C38.0028 113.677 38.1041 114.129 38.2483 114.54C38.3926 114.944 38.6029 115.27 38.8792 115.517C39.1499 115.758 39.5125 115.88 39.967 115.884C40.5976 115.889 41.0769 115.661 41.4047 115.197C41.7269 114.734 41.8911 114.142 41.8972 113.42Z"
        fill="black" fill-opacity="0.8" />
</svg>