<?xml version="1.0" standalone="no"?>
<!DOCTYPE svg PUBLIC "-//W3C//DTD SVG 20010904//EN"
 "http://www.w3.org/TR/2001/REC-SVG-20010904/DTD/svg10.dtd">
<svg version="1.0" xmlns="http://www.w3.org/2000/svg"
 width="733.000000pt" height="733.000000pt" viewBox="0 0 733.000000 733.000000"
 preserveAspectRatio="xMidYMid meet">
<metadata>
Created by potrace 1.14, written by Peter Selinger 2001-2017
</metadata>
<g transform="translate(0.000000,733.000000) scale(0.100000,-0.100000)"
fill="#000000" stroke="none">
<path d="M3428 7325 c-2 -2 -34 -6 -73 -10 -38 -3 -81 -8 -95 -10 -36 -5 -132
-18 -155 -21 -11 -1 -31 -5 -45 -9 -23 -6 -58 -12 -105 -20 -11 -1 -49 -11
-85 -20 -36 -9 -73 -19 -83 -20 -9 -2 -22 -7 -27 -10 -5 -3 -20 -8 -32 -10
-20 -4 -135 -40 -168 -52 -8 -3 -19 -7 -25 -9 -22 -5 -189 -75 -260 -109 -42
-19 -79 -35 -84 -35 -5 0 -11 -3 -13 -7 -1 -5 -25 -19 -53 -33 -91 -45 -355
-207 -375 -229 -3 -4 -39 -32 -80 -63 -138 -103 -185 -145 -329 -288 -254
-252 -441 -510 -606 -835 -66 -130 -137 -288 -141 -315 0 -3 -6 -18 -13 -35
-36 -91 -98 -296 -116 -385 -20 -100 -46 -240 -50 -273 -3 -23 -8 -53 -10 -67
-16 -73 -20 -251 -20 -800 0 -333 3 -636 7 -675 13 -119 17 -152 34 -248 8
-51 17 -101 19 -112 1 -11 8 -38 13 -60 6 -22 14 -53 17 -70 3 -16 7 -34 9
-40 2 -5 6 -23 10 -40 63 -251 234 -643 379 -868 20 -31 37 -60 37 -63 0 -2 4
-10 10 -17 5 -7 51 -68 102 -136 147 -196 158 -210 313 -365 172 -173 283
-265 512 -424 18 -12 37 -22 43 -22 5 0 10 -3 10 -8 0 -4 21 -19 47 -32 26
-14 53 -30 60 -37 15 -13 309 -160 363 -182 19 -7 49 -19 65 -26 150 -63 450
-152 580 -170 22 -3 47 -8 55 -11 26 -10 50 -13 185 -28 33 -4 74 -8 90 -10
17 -1 35 -5 40 -8 6 -3 127 -4 270 -3 234 2 327 6 420 21 17 3 46 7 65 9 50 6
95 13 95 15 0 1 9 3 20 5 63 9 183 34 205 42 8 3 20 7 25 8 59 15 143 37 155
42 8 3 20 7 25 9 68 16 348 129 413 165 28 16 52 27 52 24 0 -2 26 11 58 29
31 18 67 37 80 40 12 4 22 11 22 16 0 4 12 13 28 19 30 13 39 18 127 75 33 21
62 42 65 46 3 4 16 13 29 20 23 12 186 135 221 167 8 7 38 32 65 55 136 115
408 414 498 548 9 14 31 45 48 70 69 97 136 213 218 375 47 94 87 175 88 180
1 6 16 46 34 90 17 44 35 89 40 100 12 32 29 90 27 95 -1 3 4 15 11 28 7 13
14 33 16 44 3 11 12 46 21 77 9 31 18 67 21 81 2 14 10 50 18 80 7 30 18 87
25 125 6 39 13 84 16 100 3 17 7 48 9 70 2 22 8 74 12 115 10 96 10 1274 0
1360 -4 36 -9 80 -12 98 -2 18 -7 52 -10 75 -9 66 -17 120 -22 142 -2 11 -6
31 -9 45 -13 66 -47 202 -66 265 -12 39 -22 75 -24 80 -4 17 -34 109 -43 130
-5 11 -19 45 -31 75 -11 30 -25 64 -29 75 -51 124 -184 371 -291 540 -18 29
-140 196 -155 211 -5 7 -26 31 -45 55 -89 109 -289 315 -381 391 -24 20 -54
44 -66 55 -41 35 -58 48 -133 103 -98 73 -246 170 -259 170 -5 0 -11 3 -13 8
-14 32 -422 222 -623 290 -153 52 -391 111 -510 127 -23 3 -52 8 -65 10 -14 3
-50 8 -80 11 -30 2 -71 7 -90 10 -38 6 -536 14 -542 9z"/>
</g>
</svg>
